<svg width="31" height="31" viewBox="0 0 31 31" fill="none" xmlns="http://www.w3.org/2000/svg">
<g clip-path="url(#clip0_7_365)">
<path d="M15.4871 2.58334C8.35712 2.58334 2.58337 8.37001 2.58337 15.5C2.58337 22.63 8.35712 28.4167 15.4871 28.4167C22.63 28.4167 28.4167 22.63 28.4167 15.5C28.4167 8.37001 22.63 2.58334 15.4871 2.58334ZM15.5 25.8333C9.79087 25.8333 5.16671 21.2092 5.16671 15.5C5.16671 9.79084 9.79087 5.16668 15.5 5.16668C21.2092 5.16668 25.8334 9.79084 25.8334 15.5C25.8334 21.2092 21.2092 25.8333 15.5 25.8333Z" fill="#FD0037"/>
<path d="M16.1459 9.04166H14.2084V16.7917L20.9896 20.8604L21.9584 19.2717L16.1459 15.8229V9.04166Z" fill="#FD0037"/>
</g>
<defs>
<clipPath id="clip0_7_365">
<rect width="31" height="31" fill="white"/>
</clipPath>
</defs>
</svg>
