<svg width="50" height="50" viewBox="0 0 50 50" fill="none" xmlns="http://www.w3.org/2000/svg">
<path d="M9.51032 4C6.80957 4 4.599 6.25048 4.599 9V41C4.599 43.7495 6.80957 46 9.51032 46H26.0438C26.1499 46.0178 26.2581 46.0178 26.3642 46H31.9374C32.0435 46.0178 32.1517 46.0178 32.2578 46H40.9428C43.6435 46 45.8541 43.7495 45.8541 41V9C45.8541 6.25048 43.6435 4 40.9428 4H9.51032ZM9.51032 6H40.9428C42.5817 6 43.8896 7.33152 43.8896 9V41C43.8896 42.6685 42.5817 44 40.9428 44H33.0847V30H36.8372L38.2128 23H33.0847V21C33.0847 20.4425 33.1368 20.3989 33.3206 20.2773C33.5045 20.1558 34.0727 20 35.0492 20H37.996V14.3691L37.4358 14.0977C37.4358 14.0977 35.1795 13 32.1024 13C29.8923 13 28.0767 13.8965 26.9148 15.375C25.753 16.8535 25.2266 18.8333 25.2266 21V23H22.2798V30H25.2266V44H9.51032C7.87143 44 6.56353 42.6685 6.56353 41V9C6.56353 7.33152 7.87143 6 9.51032 6ZM32.1024 15C34.1446 15 35.4297 15.4585 36.0315 15.7012V18H35.0492C33.9188 18 33.0129 18.0952 32.2501 18.5996C31.4873 19.104 31.1201 20.0615 31.1201 21V25H35.8147L35.2257 28H31.1201V44H27.1911V28H24.2443V25H27.1911V21C27.1911 19.1667 27.6469 17.6465 28.4496 16.625C29.2523 15.6035 30.3834 15 32.1024 15Z" fill="white"/>
</svg>
