<svg width="50" height="50" viewBox="0 0 50 50" fill="none" xmlns="http://www.w3.org/2000/svg">
<path d="M9.57575 4C6.875 4 4.66443 6.25048 4.66443 9V41C4.66443 43.7495 6.875 46 9.57575 46H26.1093C26.2153 46.0178 26.3236 46.0178 26.4296 46H32.0028C32.1089 46.0178 32.2172 46.0178 32.3232 46H41.0082C43.709 46 45.9195 43.7495 45.9195 41V9C45.9195 6.25048 43.709 4 41.0082 4H9.57575ZM9.57575 6H41.0082C42.6471 6 43.955 7.33152 43.955 9V41C43.955 42.6685 42.6471 44 41.0082 44H33.1501V30H36.9027L38.2782 23H33.1501V21C33.1501 20.4425 33.2022 20.3989 33.3861 20.2773C33.5699 20.1558 34.1381 20 35.1146 20H38.0614V14.3691L37.5012 14.0977C37.5012 14.0977 35.2449 13 32.1678 13C29.9577 13 28.1421 13.8965 26.9803 15.375C25.8184 16.8535 25.292 18.8333 25.292 21V23H22.3452V30H25.292V44H9.57575C7.93686 44 6.62896 42.6685 6.62896 41V9C6.62896 7.33152 7.93686 6 9.57575 6ZM32.1678 15C34.21 15 35.4951 15.4585 36.0969 15.7012V18H35.1146C33.9842 18 33.0784 18.0952 32.3156 18.5996C31.5528 19.104 31.1856 20.0615 31.1856 21V25H35.8801L35.2911 28H31.1856V44H27.2565V28H24.3097V25H27.2565V21C27.2565 19.1667 27.7124 17.6465 28.515 16.625C29.3177 15.6035 30.4489 15 32.1678 15Z" fill="#FD0037"/>
</svg>
