<svg width="50" height="50" viewBox="0 0 50 50" fill="none" xmlns="http://www.w3.org/2000/svg">
<path d="M15.7816 3C8.74125 3 3.01221 8.83248 3.01221 16V34C3.01221 41.1675 8.74125 47 15.7816 47H33.4624C40.5028 47 46.2319 41.1675 46.2319 34V16C46.2319 8.83248 40.5028 3 33.4624 3H15.7816ZM15.7816 5H33.4624C39.441 5 44.2673 9.91352 44.2673 16V34C44.2673 40.0865 39.441 45 33.4624 45H15.7816C9.80311 45 4.97674 40.0865 4.97674 34V16C4.97674 9.91352 9.80311 5 15.7816 5ZM36.4092 11C35.8882 11 35.3885 11.2107 35.0201 11.5858C34.6517 11.9609 34.4447 12.4696 34.4447 13C34.4447 13.5304 34.6517 14.0391 35.0201 14.4142C35.3885 14.7893 35.8882 15 36.4092 15C36.9302 15 37.4299 14.7893 37.7983 14.4142C38.1668 14.0391 38.3737 13.5304 38.3737 13C38.3737 12.4696 38.1668 11.9609 37.7983 11.5858C37.4299 11.2107 36.9302 11 36.4092 11ZM24.622 14C18.6663 14 13.8171 18.9367 13.8171 25C13.8171 31.0633 18.6663 36 24.622 36C30.5778 36 35.4269 31.0633 35.4269 25C35.4269 18.9367 30.5778 14 24.622 14ZM24.622 16C29.5161 16 33.4624 20.0176 33.4624 25C33.4624 29.9824 29.5161 34 24.622 34C19.728 34 15.7816 29.9824 15.7816 25C15.7816 20.0176 19.728 16 24.622 16Z" fill="#FD0037"/>
</svg>
