<svg width="50" height="50" viewBox="0 0 50 50" fill="none" xmlns="http://www.w3.org/2000/svg">
<path d="M15.7162 3C8.67582 3 2.94678 8.83248 2.94678 16V34C2.94678 41.1675 8.67582 47 15.7162 47H33.397C40.4374 47 46.1664 41.1675 46.1664 34V16C46.1664 8.83248 40.4374 3 33.397 3H15.7162ZM15.7162 5H33.397C39.3755 5 44.2019 9.91352 44.2019 16V34C44.2019 40.0865 39.3755 45 33.397 45H15.7162C9.73768 45 4.91131 40.0865 4.91131 34V16C4.91131 9.91352 9.73768 5 15.7162 5ZM36.3438 11C35.8228 11 35.3231 11.2107 34.9546 11.5858C34.5862 11.9609 34.3792 12.4696 34.3792 13C34.3792 13.5304 34.5862 14.0391 34.9546 14.4142C35.3231 14.7893 35.8228 15 36.3438 15C36.8648 15 37.3645 14.7893 37.7329 14.4142C38.1013 14.0391 38.3083 13.5304 38.3083 13C38.3083 12.4696 38.1013 11.9609 37.7329 11.5858C37.3645 11.2107 36.8648 11 36.3438 11ZM24.5566 14C18.6008 14 13.7517 18.9367 13.7517 25C13.7517 31.0633 18.6008 36 24.5566 36C30.5124 36 35.3615 31.0633 35.3615 25C35.3615 18.9367 30.5124 14 24.5566 14ZM24.5566 16C29.4506 16 33.397 20.0176 33.397 25C33.397 29.9824 29.4506 34 24.5566 34C19.6626 34 15.7162 29.9824 15.7162 25C15.7162 20.0176 19.6626 16 24.5566 16Z" fill="white"/>
</svg>
