<svg width="129" height="26" viewBox="0 0 129 26" fill="none" xmlns="http://www.w3.org/2000/svg">
<path d="M4.55273 26V15.5234H14.8887V11.9727H4.55273V4.34375H15.8906V0.634766H0.298828V26H4.55273ZM36.9492 26V22.3438H31.7461V4.29102H36.9492V0.634766H22.2891V4.29102H27.4922V22.3438H22.2891V26H36.9492ZM54 26V4.34375H61.418V0.634766H42.3281V4.34375H49.7461V26H54Z" fill="#131317"/>
<path d="M82.9512 22.2207H71.4902V0.634766H67.2891V26H82.9512V22.2207ZM93.1465 15.9629L96.1699 5.08203H96.3457L99.334 15.9629H93.1465ZM102.094 26H106.646L98.8242 0.634766H93.9375L86.1152 26H90.3691L92.2148 19.3379H100.266L102.094 26ZM119.408 26C124.857 26 128.145 23.2754 128.145 18.8281C128.145 15.5059 125.807 12.9746 122.432 12.6934V12.4121C125.033 11.9902 126.914 9.6875 126.914 6.92773C126.914 2.99023 124.031 0.634766 119.232 0.634766H110.338V26H119.408ZM114.521 3.99219H118.143C121.025 3.99219 122.643 5.31055 122.643 7.68359C122.643 9.98633 120.92 11.2871 117.826 11.2871H114.521V3.99219ZM114.521 22.5898V14.4863H118.143C121.852 14.4863 123.732 15.8398 123.732 18.4941C123.732 21.2539 121.904 22.5898 118.213 22.5898H114.521Z" fill="white"/>
</svg>
