<svg width="31" height="31" viewBox="0 0 31 31" fill="none" xmlns="http://www.w3.org/2000/svg">
<g clip-path="url(#clip0_7_369)">
<path d="M8.55083 13.9371C10.4108 17.5925 13.4075 20.5762 17.0629 22.4492L19.9046 19.6075C20.2533 19.2587 20.77 19.1425 21.2221 19.2975C22.6688 19.7754 24.2317 20.0338 25.8333 20.0338C26.5437 20.0338 27.125 20.615 27.125 21.3254V25.8333C27.125 26.5437 26.5437 27.125 25.8333 27.125C13.7046 27.125 3.875 17.2954 3.875 5.16667C3.875 4.45625 4.45625 3.875 5.16667 3.875H9.6875C10.3979 3.875 10.9792 4.45625 10.9792 5.16667C10.9792 6.78125 11.2375 8.33125 11.7154 9.77792C11.8575 10.23 11.7542 10.7337 11.3925 11.0954L8.55083 13.9371Z" fill="#FD0037"/>
</g>
<defs>
<clipPath id="clip0_7_369">
<rect width="31" height="31" fill="white"/>
</clipPath>
</defs>
</svg>
