<svg width="50" height="50" viewBox="0 0 50 50" fill="none" xmlns="http://www.w3.org/2000/svg">
<path d="M43.9296 5.98634C43.4512 6.00771 42.9855 6.14326 42.5656 6.31447C42.1499 6.48452 39.7569 7.52435 36.2231 9.06251C32.6892 10.6007 28.0955 12.6037 23.5419 14.5899C14.4346 18.5622 5.48509 22.4707 5.48509 22.4707L5.55032 22.4453C5.55032 22.4453 5.01017 22.6291 4.46254 23.0176C4.18872 23.2118 3.89414 23.4626 3.65294 23.8281C3.41174 24.1937 3.2354 24.7118 3.30186 25.2598C3.53526 27.1845 5.49468 27.7305 5.49468 27.7305L5.50236 27.7344L14.2468 30.7813C14.4698 31.5384 16.899 39.7929 17.4334 41.541C17.7285 42.5075 18.0048 43.065 18.2929 43.4453C18.4371 43.6356 18.5882 43.7829 18.7553 43.8906C18.8216 43.9334 18.8915 43.9655 18.9605 43.9942C18.962 43.9948 18.9629 43.9935 18.9644 43.9942C18.9729 43.998 18.9808 43.9983 18.9893 44.002L18.9663 43.9961C18.9823 44.0027 18.9982 44.0138 19.0143 44.0195C19.0454 44.0307 19.0645 44.0303 19.1044 44.0391C20.1059 44.3951 20.9347 43.7344 20.9347 43.7344L20.9692 43.707L26.341 38.6348L35.0585 45.5547L35.1679 45.6055C36.6938 46.2952 38.0738 45.9104 38.838 45.2774C39.6022 44.6443 39.9027 43.8281 39.9027 43.8281L39.9353 43.7422L46.3412 9.75197C46.5051 8.99153 46.5284 8.33421 46.3738 7.74025C46.2192 7.14628 45.8436 6.62995 45.3723 6.34376C44.901 6.05758 44.408 5.96497 43.9296 5.98634ZM43.9814 8.01954C44.1757 8.01038 44.3197 8.033 44.3651 8.06056C44.4105 8.08812 44.4309 8.0845 44.4745 8.25197C44.5181 8.41944 44.5417 8.77217 44.4227 9.32423L44.4188 9.33595L38.0495 43.1289C38.0344 43.1629 37.9017 43.4755 37.5986 43.7266C37.2895 43.9827 36.9456 44.1826 36.0331 43.793L26.5002 36.2246L26.2316 36.0098L26.2258 36.0156L23.375 33.8379L39.3962 14.6485C39.5194 14.5014 39.598 14.3212 39.6226 14.1296C39.6472 13.938 39.6168 13.7432 39.535 13.5688C39.4533 13.3945 39.3236 13.248 39.1618 13.147C38.9999 13.0461 38.8128 12.995 38.6231 13C38.4377 13.0049 38.2574 13.0631 38.1032 13.168L14.9202 28.9024L6.16232 25.8496C6.16232 25.8496 5.29266 25.3569 5.25104 25.0137C5.24873 24.9947 5.23846 25.0119 5.28365 24.9434C5.32884 24.8749 5.44244 24.7592 5.58485 24.6582C5.86969 24.4562 6.19493 24.334 6.19493 24.334L6.22755 24.3223L6.26016 24.3086C6.26016 24.3086 15.2101 20.3999 24.3169 16.4277C28.8704 14.4417 33.4633 12.4401 36.9962 10.9024C40.5283 9.36497 43.0804 8.25838 43.2965 8.16993C43.5425 8.06964 43.7871 8.0287 43.9814 8.01954ZM33.3569 18.793L21.2071 33.3457L21.2013 33.3516C21.1824 33.3748 21.1644 33.3989 21.1476 33.4238C21.1283 33.4509 21.1104 33.4789 21.0939 33.5078C21.0256 33.6258 20.9819 33.7567 20.9654 33.8926C20.9653 33.8952 20.9653 33.8978 20.9654 33.9004L19.3826 41.1465C19.3563 41.0682 19.3379 41.0396 19.3097 40.9473V40.9453C18.807 39.3009 16.515 31.5161 16.1979 30.4395L33.3569 18.793ZM22.5788 35.7305L24.762 37.3984L21.5543 40.4258L22.5788 35.7305Z" fill="white"/>
</svg>
