<svg width="50" height="50" viewBox="0 0 50 50" fill="none" xmlns="http://www.w3.org/2000/svg">
<path d="M43.9951 5.98634C43.5166 6.00771 43.051 6.14326 42.631 6.31447C42.2154 6.48452 39.8223 7.52435 36.2885 9.06251C32.7547 10.6007 28.161 12.6037 23.6073 14.5899C14.5 18.5622 5.55052 22.4707 5.55052 22.4707L5.61575 22.4453C5.61575 22.4453 5.0756 22.6291 4.52797 23.0176C4.25415 23.2118 3.95957 23.4626 3.71837 23.8281C3.47717 24.1937 3.30083 24.7118 3.36728 25.2598C3.60069 27.1845 5.56011 27.7305 5.56011 27.7305L5.56779 27.7344L14.3122 30.7813C14.5352 31.5384 16.9645 39.7929 17.4989 41.541C17.794 42.5075 18.0702 43.065 18.3583 43.4453C18.5025 43.6356 18.6536 43.7829 18.8207 43.8906C18.8871 43.9334 18.9569 43.9655 19.026 43.9942C19.0274 43.9948 19.0283 43.9935 19.0298 43.9942C19.0383 43.998 19.0463 43.9983 19.0547 44.002L19.0317 43.9961C19.0478 44.0027 19.0636 44.0138 19.0797 44.0195C19.1109 44.0307 19.13 44.0303 19.1699 44.0391C20.1713 44.3951 21.0001 43.7344 21.0001 43.7344L21.0346 43.707L26.4064 38.6348L35.124 45.5547L35.2333 45.6055C36.7592 46.2952 38.1392 45.9104 38.9034 45.2774C39.6676 44.6443 39.9682 43.8281 39.9682 43.8281L40.0008 43.7422L46.4066 9.75197C46.5705 8.99153 46.5938 8.33421 46.4392 7.74025C46.2846 7.14628 45.909 6.62995 45.4378 6.34376C44.9665 6.05758 44.4735 5.96497 43.9951 5.98634ZM44.0469 8.01954C44.2411 8.01038 44.3852 8.033 44.4306 8.06056C44.4759 8.08812 44.4963 8.0845 44.5399 8.25197C44.5835 8.41944 44.6071 8.77217 44.4881 9.32423L44.4843 9.33595L38.1149 43.1289C38.0998 43.1629 37.9671 43.4755 37.6641 43.7266C37.3549 43.9827 37.0111 44.1826 36.0986 43.793L26.5656 36.2246L26.297 36.0098L26.2913 36.0156L23.4404 33.8379L39.4617 14.6485C39.5848 14.5014 39.6634 14.3212 39.688 14.1296C39.7127 13.938 39.6822 13.7432 39.6005 13.5688C39.5187 13.3945 39.389 13.248 39.2272 13.147C39.0654 13.0461 38.8783 12.995 38.6885 13C38.5031 13.0049 38.3229 13.0631 38.1686 13.168L14.9856 28.9024L6.22775 25.8496C6.22775 25.8496 5.35809 25.3569 5.31647 25.0137C5.31416 24.9947 5.30389 25.0119 5.34908 24.9434C5.39427 24.8749 5.50786 24.7592 5.65028 24.6582C5.93512 24.4562 6.26036 24.334 6.26036 24.334L6.29298 24.3223L6.32559 24.3086C6.32559 24.3086 15.2755 20.3999 24.3824 16.4277C28.9358 14.4417 33.5287 12.4401 37.0616 10.9024C40.5937 9.36497 43.1459 8.25838 43.362 8.16993C43.608 8.06964 43.8526 8.0287 44.0469 8.01954ZM33.4223 18.793L21.2725 33.3457L21.2668 33.3516C21.2478 33.3748 21.2299 33.3989 21.213 33.4238C21.1938 33.4509 21.1758 33.4789 21.1593 33.5078C21.0911 33.6258 21.0473 33.7567 21.0308 33.8926C21.0308 33.8952 21.0308 33.8978 21.0308 33.9004L19.448 41.1465C19.4217 41.0682 19.4033 41.0396 19.3751 40.9473V40.9453C18.8724 39.3009 16.5805 31.5161 16.2633 30.4395L33.4223 18.793ZM22.6442 35.7305L24.8275 37.3984L21.6198 40.4258L22.6442 35.7305Z" fill="#FD0037"/>
</svg>
